<?xml version="1.0" encoding="utf-8"?><!-- Uploaded to: SVG Repo, www.svgrepo.com, Generator: SVG Repo Mixer Tools -->
<svg fill="#000000" width="800px" height="800px" viewBox="0 0 24 24" id="double-down-scroll-bar" data-name="Flat Color" xmlns="http://www.w3.org/2000/svg" class="icon flat-color"><path id="secondary" d="M18,13H6a1,1,0,0,1,0-2H18a1,1,0,0,1,0,2Z" style="fill: rgb(44, 169, 188);"></path><path id="primary" d="M14.71,18.29a1,1,0,0,1,0,1.42l-2,2a1,1,0,0,1-1.42,0l-2-2a1,1,0,0,1,1.42-1.42l.29.3V16a1,1,0,0,1,2,0v2.59l.29-.3A1,1,0,0,1,14.71,18.29ZM11.29,8.71a1,1,0,0,0,1.42,0l2-2a1,1,0,1,0-1.42-1.42l-.29.3V3a1,1,0,0,0-2,0V5.59l-.29-.3A1,1,0,0,0,9.29,6.71Z" style="fill: rgb(0, 0, 0);"></path></svg>