<svg width="16" height="16" viewBox="0 0 16 16" fill="none" xmlns="http://www.w3.org/2000/svg">
<g clip-path="url(#clip0_3784_20683)">
<path fill-rule="evenodd" clip-rule="evenodd" d="M0.355896 15.7076L1.43287 11.7759C0.768457 10.6253 0.419059 9.31969 0.419459 7.98246C0.421458 3.79889 3.82588 0.395264 8.00986 0.395264C10.0403 0.396063 11.9456 1.1864 13.3787 2.62037C14.8115 4.05474 15.6007 5.96083 15.5999 7.98846C15.5983 12.172 12.193 15.5761 8.00986 15.5761H8.00666C6.73659 15.5757 5.48812 15.257 4.37956 14.6522L0.355896 15.7076Z" fill="white"/>
<path fill-rule="evenodd" clip-rule="evenodd" d="M0.355898 15.9065C0.303129 15.9065 0.251959 15.8858 0.213981 15.8474C0.16401 15.7966 0.144421 15.7226 0.16321 15.6543L1.2182 11.8021C0.564177 10.6404 0.219178 9.32116 0.219977 7.98194C0.221576 3.68763 3.71595 0.194458 8.00986 0.194458C10.0926 0.195258 12.0495 1.00639 13.5203 2.47833C14.991 3.95068 15.8005 5.90714 15.7997 7.98754C15.7981 12.2814 12.3034 15.775 8.00986 15.775C6.735 15.7746 5.47373 15.46 4.35438 14.8647L0.406669 15.8997C0.389878 15.9045 0.373088 15.9065 0.355898 15.9065Z" fill="white"/>
<path fill-rule="evenodd" clip-rule="evenodd" d="M12.4723 3.52535C11.281 2.33324 9.69749 1.67643 8.01207 1.67603C4.53248 1.67603 1.70253 4.50478 1.70093 7.98197C1.70053 9.17368 2.03393 10.3338 2.66557 11.3384L2.81588 11.5771L2.17825 13.9041L4.56607 13.2781L4.79673 13.4148C5.76497 13.9897 6.87552 14.2935 8.00767 14.2939H8.01007C11.4872 14.2939 14.3172 11.4647 14.3184 7.98716C14.3188 6.30214 13.6636 4.71746 12.4723 3.52535Z" fill="#10A26F"/>
<path fill-rule="evenodd" clip-rule="evenodd" d="M6.11296 4.81085C5.97104 4.49504 5.82153 4.48864 5.686 4.48304C5.57527 4.47825 5.44894 4.47865 5.32261 4.47865C5.19629 4.47865 4.99081 4.52622 4.81691 4.71611C4.64301 4.906 4.15289 5.36453 4.15289 6.29759C4.15289 7.23065 4.8325 8.13253 4.92724 8.25885C5.02199 8.38518 6.23928 10.3612 8.16696 11.1216C9.76883 11.7532 10.095 11.6277 10.4428 11.5961C10.7906 11.5645 11.565 11.1376 11.7229 10.6946C11.8808 10.2517 11.8808 9.87232 11.8336 9.79316C11.7861 9.71401 11.6597 9.66684 11.4702 9.57169C11.2808 9.47655 10.3481 9.01801 10.1742 8.95485C10.0003 8.89169 9.87397 8.8601 9.74725 9.04999C9.62092 9.23948 9.25753 9.66684 9.1468 9.79316C9.03606 9.91989 8.92532 9.93588 8.73583 9.84074C8.54634 9.74559 7.9355 9.54571 7.21072 8.89968C6.64705 8.39717 6.26647 7.77633 6.15573 7.58644C6.045 7.39695 6.14374 7.29421 6.23888 7.19947C6.32403 7.11432 6.42837 6.978 6.52352 6.86726C6.61826 6.75652 6.64984 6.67737 6.71301 6.55104C6.77617 6.42432 6.74459 6.31358 6.69702 6.21884C6.65024 6.12369 6.28166 5.18584 6.11296 4.81085Z" fill="white"/>
</g>
<defs>
<clipPath id="clip0_3784_20683">
<rect width="16" height="16" fill="white"/>
</clipPath>
</defs>
</svg>
